<svg width="1081" height="1081" viewBox="0 0 1081 1081" fill="none" xmlns="http://www.w3.org/2000/svg">
<rect x="104.792" y="366.129" width="271.6" height="273.217" rx="135.8" transform="rotate(-90 104.792 366.129)" fill="black"/>
<rect x="711.557" y="366.129" width="271.6" height="273.217" rx="135.8" transform="rotate(-90 711.557 366.129)" fill="black"/>
<rect x="711.557" y="984.543" width="271.6" height="273.217" rx="135.8" transform="rotate(-90 711.557 984.543)" fill="black"/>
<rect x="104.792" y="984.543" width="271.6" height="273.217" rx="135.8" transform="rotate(-90 104.792 984.543)" fill="black"/>
<rect x="0.166016" y="635.228" width="190.12" height="191.252" rx="95.0602" transform="rotate(-90 0.166016 635.228)" fill="black"/>
<rect x="440.725" y="190.288" width="190.12" height="191.252" rx="95.0602" transform="rotate(-90 440.725 190.288)" fill="black"/>
<rect x="888.914" y="635.228" width="190.12" height="191.252" rx="95.0602" transform="rotate(-90 888.914 635.228)" fill="black"/>
<rect x="440.725" y="1080.17" width="190.12" height="191.252" rx="95.0602" transform="rotate(-90 440.725 1080.17)" fill="black"/>
</svg>
