<svg width="64" height="40" viewBox="0 0 64 40" fill="none" xmlns="http://www.w3.org/2000/svg">
<g clip-path="url(#clip0_27_2)">
<path d="M47.066 15.357C49.936 13.486 52.816 13.244 55.868 13.742C61.125 14.601 63.431 18.661 63.764 22.418C64.018 25.303 63.6 28.126 62.538 30.834C59.937 37.461 53.315 40.994 46.179 39.561C45.349 39.394 44.524 39.169 43.721 38.906C36.496 36.532 32.445 30.637 32.965 23.107C33.296 18.356 34.714 13.912 37.3 9.876C39.589 6.307 42.672 3.618 46.577 1.876C48.424 1.05 50.368 0.773996 52.376 0.794996C53.068 0.802996 53.555 1.117 53.916 1.639C55.017 3.215 55.449 5.048 55.839 6.877C55.969 7.492 55.646 7.915 55.014 8.165C54.052 8.547 53.11 8.988 52.191 9.461C49.931 10.627 48.346 12.452 47.204 14.679C47.147 14.787 47.152 14.929 47.069 15.355L47.066 15.357ZM21.026 15.729C19.267 15.406 17.501 15.133 15.583 14.813H15.586C15.784 14.488 15.909 14.243 16.07 14.023C18.162 11.21 20.883 9.458 24.439 9.063C26.078 8.88 26.411 8.555 26.328 6.911C26.261 5.613 26.078 4.294 25.722 3.048C25.168 1.107 23.204 -0.0620039 21.219 0.334996C19.746 0.629996 18.269 1.009 16.882 1.569C13.796 2.813 11.007 4.581 8.539 6.797C2.599 12.129 -0.231998 18.785 0.330002 26.723C0.687002 31.757 3.179 35.587 7.719 37.964C11.122 39.747 14.774 40.369 18.565 39.626C24.062 38.547 27.871 35.396 29.609 30.07C31.581 24.031 28.776 18.483 22.782 16.261C22.21 16.046 21.624 15.84 21.026 15.729Z" fill="white"/>
</g>
<defs>
<clipPath id="clip0_27_2">
<rect width="64" height="40" fill="white"/>
</clipPath>
</defs>
</svg>
