<svg xmlns="http://www.w3.org/2000/svg" xmlns:xlink="http://www.w3.org/1999/xlink" viewBox="0 0 64 40"><path d="M 47.066 15.357 C 49.936 13.486 52.816 13.244 55.868 13.742 C 61.125 14.601 63.431 18.661 63.764 22.418 C 64.018 25.303 63.6 28.126 62.538 30.834 C 59.937 37.461 53.315 40.994 46.179 39.561 C 45.349 39.394 44.524 39.169 43.721 38.906 C 36.496 36.532 32.445 30.637 32.965 23.107 C 33.296 18.356 34.714 13.912 37.3 9.876 C 39.589 6.307 42.672 3.618 46.577 1.876 C 48.424 1.05 50.368 0.774 52.376 0.795 C 53.068 0.803 53.555 1.117 53.916 1.639 C 55.017 3.215 55.449 5.048 55.839 6.877 C 55.969 7.492 55.646 7.915 55.014 8.165 C 54.052 8.547 53.11 8.988 52.191 9.461 C 49.931 10.627 48.346 12.452 47.204 14.679 C 47.147 14.787 47.152 14.929 47.069 15.355 Z M 21.026 15.729 C 19.267 15.406 17.501 15.133 15.583 14.813 L 15.586 14.813 C 15.784 14.488 15.909 14.243 16.07 14.023 C 18.162 11.21 20.883 9.458 24.439 9.063 C 26.078 8.88 26.411 8.555 26.328 6.911 C 26.261 5.613 26.078 4.294 25.722 3.048 C 25.168 1.107 23.204 -0.062 21.219 0.335 C 19.746 0.63 18.269 1.009 16.882 1.569 C 13.796 2.813 11.007 4.581 8.539 6.797 C 2.599 12.129 -0.232 18.785 0.33 26.723 C 0.687 31.757 3.179 35.587 7.719 37.964 C 11.122 39.747 14.774 40.369 18.565 39.626 C 24.062 38.547 27.871 35.396 29.609 30.07 C 31.581 24.031 28.776 18.483 22.782 16.261 C 22.21 16.046 21.624 15.84 21.026 15.729 Z" fill="rgb(0,0,0)"></path></svg>